<?xml version="1.0" encoding="UTF-8" standalone="no"?>
<svg
   xmlns:dc="http://purl.org/dc/elements/1.1/"
   xmlns:cc="http://creativecommons.org/ns#"
   xmlns:rdf="http://www.w3.org/1999/02/22-rdf-syntax-ns#"
   xmlns:svg="http://www.w3.org/2000/svg"
   xmlns="http://www.w3.org/2000/svg"
   xmlns:sodipodi="http://sodipodi.sourceforge.net/DTD/sodipodi-0.dtd"
   xmlns:inkscape="http://www.inkscape.org/namespaces/inkscape"
   viewBox="0 0 196.04738 69.048156"
   version="1.1"
   id="svg1233"
   sodipodi:docname="app.svg"
   width="196.04738"
   height="69.048157"
   inkscape:version="0.92.4 (5da689c313, 2019-01-14)">
  <metadata
     id="metadata1237">
    <rdf:RDF>
      <cc:Work
         rdf:about="">
        <dc:format>image/svg+xml</dc:format>
        <dc:type
           rdf:resource="http://purl.org/dc/dcmitype/StillImage" />
        <dc:title>Ativo 13</dc:title>
      </cc:Work>
    </rdf:RDF>
  </metadata>
  <sodipodi:namedview
     pagecolor="#ffffff"
     bordercolor="#666666"
     borderopacity="1"
     objecttolerance="10"
     gridtolerance="10"
     guidetolerance="10"
     inkscape:pageopacity="0"
     inkscape:pageshadow="2"
     inkscape:window-width="1366"
     inkscape:window-height="704"
     id="namedview1235"
     showgrid="false"
     fit-margin-top="0"
     fit-margin-left="0"
     fit-margin-right="0"
     fit-margin-bottom="0"
     inkscape:zoom="3.4569176"
     inkscape:cx="91.844828"
     inkscape:cy="22.189996"
     inkscape:window-x="0"
     inkscape:window-y="27"
     inkscape:window-maximized="1"
     inkscape:current-layer="svg1233" />
  <defs
     id="defs1167">
    <style
       id="style1165">.cls-1{fill:#231f20;}.cls-2{fill:#fff;}</style>
  </defs>
  <title
     id="title1169">Ativo 13</title>
  <g
     id="Camada_2"
     data-name="Camada 2"
     transform="scale(1.4450312,1.5558395)">
    <g
       id="Camada_1-2"
       data-name="Camada 1">
      <rect
         class="cls-1"
         width="135.67"
         height="44.380001"
         rx="6"
         ry="6"
         id="rect1171"
         x="0"
         y="0"
         style="fill:#231f20" />
      <path
         class="cls-2"
         d="m 23.43,7.59 h -11 A 2.4,2.4 0 0 0 10,10 v 24.47 a 2.4,2.4 0 0 0 2.4,2.4 h 11 a 2.39,2.39 0 0 0 2.4,-2.4 V 10 A 2.39,2.39 0 0 0 23.43,7.59 Z m -5.52,27.52 a 1.6,1.6 0 1 1 1.59,-1.6 1.6,1.6 0 0 1 -1.59,1.6 z m 6,-4 H 11.87 V 13.08 H 24 Z"
         id="path1173"
         inkscape:connector-curvature="0"
         style="fill:#ffffff" />
      <path
         class="cls-2"
         d="m 34.88,12 -0.67,2 h -0.86 l 2.19,-6.47 h 1 L 38.76,14 h -0.89 l -0.7,-2 z M 37,11.3 36.36,9.44 C 36.22,9.02 36.13,8.63 36.03,8.26 v 0 c -0.08,0.37 -0.19,0.78 -0.31,1.17 l -0.64,1.87 z"
         id="path1175"
         inkscape:connector-curvature="0"
         style="fill:#ffffff" />
      <path
         class="cls-2"
         d="m 39.62,9.34 0.91,2.6 c 0.16,0.44 0.28,0.82 0.38,1.2 v 0 c 0.1,-0.38 0.24,-0.76 0.39,-1.2 l 0.9,-2.6 h 0.89 L 41.29,14 h -0.8 L 38.72,9.34 Z"
         id="path1177"
         inkscape:connector-curvature="0"
         style="fill:#ffffff" />
      <path
         class="cls-2"
         d="M 47,12.87 A 7.55,7.55 0 0 0 47.07,14 h -0.76 l -0.08,-0.59 v 0 a 1.7,1.7 0 0 1 -1.42,0.69 1.32,1.32 0 0 1 -1.42,-1.33 c 0,-1.12 1,-1.74 2.79,-1.73 V 10.95 A 1,1 0 0 0 45.1,9.86 2.26,2.26 0 0 0 43.88,10.21 L 43.69,9.64 a 3,3 0 0 1 1.54,-0.4 c 1.43,0 1.77,1 1.77,1.9 z m -0.82,-1.25 c -0.93,0 -2,0.14 -2,1 a 0.74,0.74 0 0 0 0.79,0.81 1.17,1.17 0 0 0 1.14,-0.78 0.8,0.8 0 0 0 0,-0.27 z"
         id="path1179"
         inkscape:connector-curvature="0"
         style="fill:#ffffff" />
      <path
         class="cls-2"
         d="m 48.71,8.49 a 0.55,0.55 0 0 1 0,-1.09 0.52,0.52 0 0 1 0.54,0.54 0.53,0.53 0 0 1 -0.55,0.55 z m -0.4,5.5 V 9.34 h 0.84 V 14 Z"
         id="path1181"
         inkscape:connector-curvature="0"
         style="fill:#ffffff" />
      <path
         class="cls-2"
         d="m 50.5,7.17 h 0.85 V 14 H 50.5 Z"
         id="path1183"
         inkscape:connector-curvature="0"
         style="fill:#ffffff" />
      <path
         class="cls-2"
         d="M 56,12.87 A 7.55,7.55 0 0 0 56,14 h -0.76 l -0.07,-0.59 v 0 a 1.7,1.7 0 0 1 -1.42,0.69 1.32,1.32 0 0 1 -1.42,-1.33 c 0,-1.12 1,-1.74 2.79,-1.73 v -0.09 a 1,1 0 0 0 -1.06,-1.08 2.21,2.21 0 0 0 -1.21,0.35 l -0.2,-0.57 a 3,3 0 0 1 1.54,-0.4 c 1.43,0 1.77,1 1.77,1.9 z m -0.82,-1.25 c -0.92,0 -2,0.14 -2,1 a 0.74,0.74 0 0 0 0.79,0.81 1.16,1.16 0 0 0 1.14,-0.78 0.8,0.8 0 0 0 0,-0.27 z"
         id="path1185"
         inkscape:connector-curvature="0"
         style="fill:#ffffff" />
      <path
         class="cls-2"
         d="m 57.28,7.17 h 0.84 v 2.91 0 A 1.72,1.72 0 0 1 59.7,9.24 c 1.16,0 2,1 2,2.36 A 2.21,2.21 0 0 1 59.61,14.09 1.66,1.66 0 0 1 58,13.22 v 0 0.78 h -0.73 c 0,-0.32 0,-0.79 0,-1.2 z m 0.84,5 a 1.45,1.45 0 0 0 0,0.3 1.3,1.3 0 0 0 1.27,1 c 0.89,0 1.41,-0.72 1.41,-1.78 0,-1.06 -0.45,-1.79 -1.35,-1.79 a 1.33,1.33 0 0 0 -1.28,1 1.23,1.23 0 0 0 -0.05,0.35 z"
         id="path1187"
         inkscape:connector-curvature="0"
         style="fill:#ffffff" />
      <path
         class="cls-2"
         d="m 62.69,7.17 h 0.84 V 14 h -0.84 z"
         id="path1189"
         inkscape:connector-curvature="0"
         style="fill:#ffffff" />
      <path
         class="cls-2"
         d="m 65.37,11.81 a 1.48,1.48 0 0 0 1.63,1.61 3.13,3.13 0 0 0 1.29,-0.23 l 0.15,0.6 a 3.92,3.92 0 0 1 -1.56,0.29 2.16,2.16 0 0 1 -2.28,-2.34 2.26,2.26 0 0 1 2.19,-2.51 2,2 0 0 1 1.91,2.19 2.1,2.1 0 0 1 0,0.4 z M 67.83,11.2 A 1.21,1.21 0 0 0 66.67,9.83 1.39,1.39 0 0 0 65.38,11.2 Z"
         id="path1191"
         inkscape:connector-curvature="0"
         style="fill:#ffffff" />
      <path
         class="cls-2"
         d="m 73.52,14.09 a 2.21,2.21 0 0 1 -2.22,-2.39 2.27,2.27 0 0 1 2.3,-2.46 2.2,2.2 0 0 1 2.24,2.38 2.28,2.28 0 0 1 -2.31,2.47 z m 0,-0.63 c 0.81,0 1.41,-0.76 1.41,-1.81 0,-0.79 -0.39,-1.78 -1.39,-1.78 -1,0 -1.42,0.92 -1.42,1.8 0,0.88 0.58,1.79 1.39,1.79 z"
         id="path1193"
         inkscape:connector-curvature="0"
         style="fill:#ffffff" />
      <path
         class="cls-2"
         d="m 76.85,10.6 c 0,-0.49 0,-0.87 0,-1.26 h 0.75 v 0.76 0 a 1.72,1.72 0 0 1 1.53,-0.86 c 0.65,0 1.65,0.38 1.65,2 V 14 H 80 V 11.31 C 80,10.56 79.72,9.93 78.93,9.93 a 1.23,1.23 0 0 0 -1.14,0.86 1.62,1.62 0 0 0 0,0.4 V 14 h -0.85 z"
         id="path1195"
         inkscape:connector-curvature="0"
         style="fill:#ffffff" />
      <path
         class="cls-2"
         d="m 85.13,8.23 v 1.11 h 1.21 V 10 h -1.21 v 2.5 c 0,0.58 0.17,0.9 0.64,0.9 a 1.54,1.54 0 0 0 0.49,-0.06 v 0.65 A 2.22,2.22 0 0 1 85.52,14.1 1.23,1.23 0 0 1 84.6,13.75 1.82,1.82 0 0 1 84.28,12.53 V 10 H 83.56 V 9.34 h 0.72 V 8.49 Z"
         id="path1197"
         inkscape:connector-curvature="0"
         style="fill:#ffffff" />
      <path
         class="cls-2"
         d="m 87.24,7.17 h 0.85 v 2.9 0 a 1.42,1.42 0 0 1 0.6,-0.59 1.6,1.6 0 0 1 0.87,-0.24 c 0.62,0 1.62,0.38 1.62,2 V 14 h -0.85 v -2.68 c 0,-0.76 -0.28,-1.38 -1.07,-1.38 a 1.21,1.21 0 0 0 -1.13,0.84 1,1 0 0 0 -0.06,0.41 V 14 h -0.85 z"
         id="path1199"
         inkscape:connector-curvature="0"
         style="fill:#ffffff" />
      <path
         class="cls-2"
         d="m 93,11.81 a 1.48,1.48 0 0 0 1.58,1.61 3.13,3.13 0 0 0 1.29,-0.23 l 0.15,0.6 a 3.82,3.82 0 0 1 -1.55,0.29 2.16,2.16 0 0 1 -2.28,-2.34 2.26,2.26 0 0 1 2.18,-2.51 2,2 0 0 1 1.91,2.19 2.1,2.1 0 0 1 0,0.4 z M 95.47,11.2 A 1.21,1.21 0 0 0 94.31,9.83 1.4,1.4 0 0 0 93,11.2 Z"
         id="path1201"
         inkscape:connector-curvature="0"
         style="fill:#ffffff" />
      <path
         class="cls-2"
         d="m 99.67,8.49 a 0.55,0.55 0 0 1 0,-1.09 0.52,0.52 0 0 1 0.54,0.54 0.53,0.53 0 0 1 -0.55,0.55 z m -0.4,5.5 V 9.34 h 0.84 V 14 Z"
         id="path1203"
         inkscape:connector-curvature="0"
         style="fill:#ffffff" />
      <path
         class="cls-2"
         d="m 101.49,7.61 a 8.34,8.34 0 0 1 1.61,-0.14 2.63,2.63 0 0 1 1.81,0.54 1.77,1.77 0 0 1 0.58,1.35 1.87,1.87 0 0 1 -0.51,1.38 2.71,2.71 0 0 1 -2,0.71 3.39,3.39 0 0 1 -0.67,0 V 14 h -0.84 z m 0.84,3.1 a 2.71,2.71 0 0 0 0.69,0.07 c 1,0 1.62,-0.5 1.62,-1.37 0,-0.87 -0.6,-1.28 -1.53,-1.28 a 4,4 0 0 0 -0.78,0.07 z"
         id="path1205"
         inkscape:connector-curvature="0"
         style="fill:#ffffff" />
      <path
         class="cls-2"
         d="m 106.47,7.17 h 0.85 v 2.9 0 a 1.42,1.42 0 0 1 0.6,-0.59 1.6,1.6 0 0 1 0.87,-0.24 c 0.62,0 1.62,0.38 1.62,2 V 14 h -0.85 v -2.68 c 0,-0.76 -0.28,-1.38 -1.07,-1.38 a 1.21,1.21 0 0 0 -1.13,0.84 1,1 0 0 0 -0.06,0.41 V 14 h -0.85 z"
         id="path1207"
         inkscape:connector-curvature="0"
         style="fill:#ffffff" />
      <path
         class="cls-2"
         d="m 113.64,14.09 a 2.21,2.21 0 0 1 -2.22,-2.39 2.27,2.27 0 0 1 2.3,-2.46 2.19,2.19 0 0 1 2.28,2.38 2.27,2.27 0 0 1 -2.3,2.47 z m 0,-0.63 c 0.81,0 1.41,-0.76 1.41,-1.81 0,-0.79 -0.39,-1.78 -1.39,-1.78 -1,0 -1.42,0.92 -1.42,1.8 0,0.88 0.57,1.79 1.39,1.79 z"
         id="path1209"
         inkscape:connector-curvature="0"
         style="fill:#ffffff" />
      <path
         class="cls-2"
         d="m 117,10.6 c 0,-0.49 0,-0.87 0,-1.26 h 0.75 v 0.76 0 a 1.72,1.72 0 0 1 1.53,-0.86 c 0.65,0 1.64,0.38 1.64,2 V 14 h -0.84 v -2.69 c 0,-0.75 -0.28,-1.38 -1.07,-1.38 a 1.23,1.23 0 0 0 -1.14,0.86 1.6,1.6 0 0 0 -0.06,0.4 V 14 H 117 Z"
         id="path1211"
         inkscape:connector-curvature="0"
         style="fill:#ffffff" />
      <path
         class="cls-2"
         d="m 122.73,11.81 a 1.48,1.48 0 0 0 1.58,1.61 3.13,3.13 0 0 0 1.29,-0.23 l 0.15,0.6 a 3.86,3.86 0 0 1 -1.55,0.29 2.17,2.17 0 0 1 -2.29,-2.34 2.26,2.26 0 0 1 2.19,-2.51 2,2 0 0 1 1.9,2.19 2.1,2.1 0 0 1 0,0.4 z M 125.2,11.2 A 1.22,1.22 0 0 0 124,9.83 1.39,1.39 0 0 0 122.71,11.2 Z"
         id="path1213"
         inkscape:connector-curvature="0"
         style="fill:#ffffff" />
      <path
         class="cls-2"
         d="m 38.86,18.37 -5.69,16.75 h 2.6 L 37.47,30 H 43 l 1.75,5.15 h 2.68 L 41.69,18.37 Z m 1.35,2.75 c 0.19,0.75 0.4,1.53 0.66,2.37 l 1.54,4.44 H 38 l 1.51,-4.47 q 0.39,-1.09 0.7,-2.34 z"
         id="path1215"
         inkscape:connector-curvature="0"
         style="fill:#ffffff" />
      <path
         class="cls-2"
         d="m 54.77,22.71 a 4.75,4.75 0 0 0 -4,1.93 L 50.64,23 h -2.32 v 0.21 c 0.07,1 0.1,2.18 0.1,3.82 V 39.92 H 51 v -6 a 4.47,4.47 0 0 0 3.47,1.48 5.24,5.24 0 0 0 3.84,-1.63 6.91,6.91 0 0 0 1.69,-4.89 6.7,6.7 0 0 0 -1.47,-4.45 4.8,4.8 0 0 0 -3.76,-1.72 z m -0.63,2.1 c 2.26,0 3.27,2.09 3.27,4.16 0,2.68 -1.29,4.34 -3.37,4.34 a 3.06,3.06 0 0 1 -3,-2.35 3.17,3.17 0 0 1 -0.1,-0.82 v -2 a 3.71,3.71 0 0 1 0.09,-0.62 v -0.21 a 3.21,3.21 0 0 1 3.11,-2.5 z"
         id="path1217"
         inkscape:connector-curvature="0"
         style="fill:#ffffff" />
      <path
         class="cls-2"
         d="m 67.82,22.71 a 4.75,4.75 0 0 0 -4,1.93 L 63.69,23 h -2.32 v 0.21 c 0.07,1 0.1,2.18 0.1,3.82 V 39.92 H 64 v -6 a 4.47,4.47 0 0 0 3.47,1.48 5.24,5.24 0 0 0 3.84,-1.63 6.91,6.91 0 0 0 1.69,-4.89 6.76,6.76 0 0 0 -1.47,-4.45 4.8,4.8 0 0 0 -3.71,-1.72 z m -0.63,2.1 c 2.25,0 3.27,2.09 3.27,4.16 0,2.68 -1.3,4.34 -3.37,4.34 a 3.08,3.08 0 0 1 -3,-2.35 A 3.73,3.73 0 0 1 64,30.14 v -2 a 4,4 0 0 1 0.09,-0.63 v -0.2 a 3.21,3.21 0 0 1 3.1,-2.5 z"
         id="path1219"
         inkscape:connector-curvature="0"
         style="fill:#ffffff" />
      <path
         class="cls-2"
         d="m 84.16,25.47 c -2.36,-0.92 -3.12,-1.64 -3.12,-3 0,-1.12 0.89,-2.25 2.88,-2.25 a 5.9,5.9 0 0 1 3,0.74 l 0.21,0.14 0.7,-2.1 -0.15,-0.08 A 7.29,7.29 0 0 0 84,18.1 c -3.23,0 -5.48,1.91 -5.48,4.64 0,2.2 1.41,3.74 4.44,4.84 2.15,0.81 3,1.63 3,3 0,1.6 -1.23,2.59 -3.22,2.59 a 6.92,6.92 0 0 1 -3.65,-1 L 78.81,32 l -0.68,2.16 0.13,0.08 a 8.62,8.62 0 0 0 4.28,1.1 c 4.35,0 5.9,-2.65 5.9,-4.93 0,-2.28 -1.24,-3.75 -4.28,-4.94 z"
         id="path1221"
         inkscape:connector-curvature="0"
         style="fill:#ffffff" />
      <path
         class="cls-2"
         d="m 93,20.09 -2.49,0.78 V 23 H 88.7 v 2 h 1.81 v 6.21 a 4.72,4.72 0 0 0 0.88,3.21 3.26,3.26 0 0 0 2.45,1 6.07,6.07 0 0 0 2,-0.3 h 0.14 l -0.12,-2 -0.24,0.08 a 4.13,4.13 0 0 1 -1.18,0.13 c -1,0 -1.4,-0.62 -1.4,-2.08 V 25 H 96.1 V 23 H 93 Z"
         id="path1223"
         inkscape:connector-curvature="0"
         style="fill:#ffffff" />
      <path
         class="cls-2"
         d="m 102.34,22.71 c -3.55,0 -6,2.65 -6,6.43 0,3.78 2.39,6.24 5.82,6.24 v 0 c 2.9,0 6,-2 6,-6.45 a 6.4,6.4 0 0 0 -1.62,-4.49 5.64,5.64 0 0 0 -4.2,-1.73 z m -0.08,2 c 2.28,0 3.32,2.22 3.32,4.29 0,2.54 -1.41,4.38 -3.36,4.38 v 0 c -1.92,0 -3.32,-1.81 -3.32,-4.31 -0.03,-2.17 1.02,-4.36 3.36,-4.36 z"
         id="path1225"
         inkscape:connector-curvature="0"
         style="fill:#ffffff" />
      <path
         class="cls-2"
         d="m 116,22.83 h -0.15 a 2.32,2.32 0 0 0 -0.63,-0.08 3.61,3.61 0 0 0 -3.18,2 L 111.92,23 h -2.28 v 0.21 c 0.06,1 0.09,2.13 0.09,3.65 v 8.28 h 2.53 v -6.48 a 7.28,7.28 0 0 1 0.07,-1 2.81,2.81 0 0 1 2.67,-2.54 4.72,4.72 0 0 1 0.68,0.05 h 0.27 z"
         id="path1227"
         inkscape:connector-curvature="0"
         style="fill:#ffffff" />
      <path
         class="cls-2"
         d="m 121.65,22.69 c -3.38,0 -5.73,2.69 -5.73,6.55 0,3.86 2.34,6.12 6,6.12 a 9.73,9.73 0 0 0 4,-0.77 l 0.15,-0.07 -0.48,-1.89 -0.21,0.09 a 7.91,7.91 0 0 1 -3.18,0.57 3.53,3.53 0 0 1 -3.8,-3.68 h 8.18 v -0.17 a 5.74,5.74 0 0 0 0.07,-1 c 0.02,-2.67 -1.29,-5.75 -5,-5.75 z m -0.17,1.92 a 2.5,2.5 0 0 1 1.86,0.71 3.64,3.64 0 0 1 0.87,2.36 h -5.78 c 0.24,-1.46 1.15,-3.07 3.05,-3.07 z"
         id="path1229"
         inkscape:connector-curvature="0"
         style="fill:#ffffff" />
    </g>
  </g>
</svg>
