<?xml version="1.0" encoding="UTF-8" standalone="no"?>
<!-- Created with Inkscape (http://www.inkscape.org/) -->

<svg
   xmlns:dc="http://purl.org/dc/elements/1.1/"
   xmlns:cc="http://creativecommons.org/ns#"
   xmlns:rdf="http://www.w3.org/1999/02/22-rdf-syntax-ns#"
   xmlns:svg="http://www.w3.org/2000/svg"
   xmlns="http://www.w3.org/2000/svg"
   xmlns:sodipodi="http://sodipodi.sourceforge.net/DTD/sodipodi-0.dtd"
   xmlns:inkscape="http://www.inkscape.org/namespaces/inkscape"
   width="16mm"
   height="15mm"
   viewBox="0 0 16 15"
   version="1.1"
   id="svg6552"
   inkscape:version="0.92.4 5da689c313, 2019-01-14"
   sodipodi:docname="insta.svg">
  <defs
     id="defs6546" />
  <sodipodi:namedview
     id="base"
     pagecolor="#ffffff"
     bordercolor="#666666"
     borderopacity="1.0"
     inkscape:pageopacity="0.0"
     inkscape:pageshadow="2"
     inkscape:zoom="5.6"
     inkscape:cx="84.017985"
     inkscape:cy="46.414141"
     inkscape:document-units="mm"
     inkscape:current-layer="layer1"
     showgrid="false"
     inkscape:window-width="1600"
     inkscape:window-height="850"
     inkscape:window-x="0"
     inkscape:window-y="0"
     inkscape:window-maximized="1" />
  <metadata
     id="metadata6549">
    <rdf:RDF>
      <cc:Work
         rdf:about="">
        <dc:format>image/svg+xml</dc:format>
        <dc:type
           rdf:resource="http://purl.org/dc/dcmitype/StillImage" />
        <dc:title></dc:title>
      </cc:Work>
    </rdf:RDF>
  </metadata>
  <g
     inkscape:label="Layer 1"
     inkscape:groupmode="layer"
     id="layer1"
     transform="translate(0,-282)">
    <g
       id="g6025"
       transform="matrix(0.35277777,0,0,-0.35277777,7.9280452,282.3406)">
      <path
         d="m 0,0 c -5.538,0 -6.232,-0.024 -8.408,-0.123 -2.171,-0.099 -3.653,-0.444 -4.95,-0.948 -1.341,-0.521 -2.479,-1.218 -3.613,-2.352 -1.133,-1.134 -1.831,-2.271 -2.351,-3.612 -0.504,-1.298 -0.85,-2.78 -0.949,-4.95 -0.099,-2.176 -0.123,-2.87 -0.123,-8.409 0,-5.539 0.024,-6.233 0.123,-8.409 0.099,-2.17 0.445,-3.652 0.949,-4.95 0.52,-1.341 1.218,-2.478 2.351,-3.611 1.134,-1.134 2.272,-1.832 3.613,-2.353 1.297,-0.504 2.779,-0.849 4.95,-0.948 2.176,-0.099 2.87,-0.122 8.408,-0.122 5.539,0 6.233,0.023 8.408,0.122 2.171,0.099 3.654,0.444 4.95,0.948 1.342,0.521 2.479,1.219 3.613,2.353 1.133,1.133 1.831,2.27 2.352,3.611 0.504,1.298 0.849,2.78 0.948,4.95 0.099,2.176 0.123,2.87 0.123,8.409 0,5.539 -0.024,6.233 -0.123,8.409 -0.099,2.17 -0.444,3.652 -0.948,4.95 -0.521,1.341 -1.219,2.478 -2.352,3.612 -1.134,1.134 -2.271,1.831 -3.613,2.352 -1.296,0.504 -2.779,0.849 -4.95,0.948 C 6.233,-0.024 5.539,0 0,0 m 0,-3.675 c 5.446,0 6.091,-0.02 8.241,-0.119 1.988,-0.09 3.069,-0.423 3.787,-0.702 0.951,-0.37 1.631,-0.812 2.345,-1.525 0.714,-0.714 1.155,-1.393 1.525,-2.345 0.28,-0.719 0.612,-1.799 0.703,-3.787 0.097,-2.151 0.119,-2.795 0.119,-8.241 0,-5.446 -0.022,-6.09 -0.119,-8.241 -0.091,-1.988 -0.423,-3.068 -0.703,-3.786 -0.37,-0.952 -0.811,-1.632 -1.525,-2.346 -0.714,-0.712 -1.394,-1.155 -2.345,-1.525 -0.718,-0.279 -1.799,-0.611 -3.787,-0.702 -2.15,-0.098 -2.795,-0.118 -8.241,-0.118 -5.445,0 -6.09,0.02 -8.24,0.118 -1.989,0.091 -3.069,0.423 -3.787,0.702 -0.952,0.37 -1.631,0.813 -2.345,1.525 -0.714,0.714 -1.155,1.394 -1.525,2.346 -0.28,0.718 -0.612,1.798 -0.703,3.786 -0.098,2.151 -0.119,2.795 -0.119,8.241 0,5.446 0.021,6.09 0.119,8.241 0.091,1.988 0.423,3.068 0.703,3.787 0.37,0.952 0.811,1.631 1.525,2.345 0.714,0.713 1.393,1.155 2.345,1.525 0.718,0.279 1.798,0.612 3.787,0.702 2.15,0.099 2.796,0.119 8.24,0.119"
         style="fill:#ffffff;fill-opacity:1;fill-rule:nonzero;stroke:none"
         id="path6027"
         inkscape:connector-curvature="0" />
    </g>
    <g
       id="g6029"
       transform="matrix(0.35277777,0,0,-0.35277777,7.9280452,291.93312)">
      <path
         d="m 0,0 c -3.754,0 -6.798,3.043 -6.798,6.798 0,3.754 3.044,6.798 6.798,6.798 3.755,0 6.798,-3.044 6.798,-6.798 C 6.798,3.043 3.755,0 0,0 m 0,17.27 c -5.783,0 -10.472,-4.689 -10.472,-10.472 0,-5.784 4.689,-10.473 10.472,-10.473 5.784,0 10.473,4.689 10.473,10.473 C 10.473,12.581 5.784,17.27 0,17.27"
         style="fill:#ffffff;fill-opacity:1;fill-rule:nonzero;stroke:none"
         id="path6031"
         inkscape:connector-curvature="0" />
    </g>
    <g
       id="g6033"
       transform="matrix(0.35277777,0,0,-0.35277777,12.631984,285.69474)">
      <path
         d="m 0,0 c 0,-1.352 -1.096,-2.447 -2.447,-2.447 -1.353,0 -2.448,1.095 -2.448,2.447 0,1.352 1.095,2.447 2.448,2.447 C -1.096,2.447 0,1.352 0,0"
         style="fill:#ffffff;fill-opacity:1;fill-rule:nonzero;stroke:none"
         id="path6035"
         inkscape:connector-curvature="0" />
    </g>
  </g>
</svg>
