<?xml version="1.0" encoding="UTF-8" standalone="no"?>
<!-- Created with Inkscape (http://www.inkscape.org/) -->

<svg
   xmlns:dc="http://purl.org/dc/elements/1.1/"
   xmlns:cc="http://creativecommons.org/ns#"
   xmlns:rdf="http://www.w3.org/1999/02/22-rdf-syntax-ns#"
   xmlns:svg="http://www.w3.org/2000/svg"
   xmlns="http://www.w3.org/2000/svg"
   xmlns:sodipodi="http://sodipodi.sourceforge.net/DTD/sodipodi-0.dtd"
   xmlns:inkscape="http://www.inkscape.org/namespaces/inkscape"
   width="68mm"
   height="8mm"
   viewBox="0 0 68 8"
   version="1.1"
   id="svg12345"
   inkscape:version="0.92.4 5da689c313, 2019-01-14"
   sodipodi:docname="logo-foot.svg">
  <defs
     id="defs12339">
    <clipPath
       clipPathUnits="userSpaceOnUse"
       id="clipPath5884">
      <path
         d="M 0,2963.26 H 772.67 V 0 H 0 Z"
         id="path5882"
         inkscape:connector-curvature="0" />
    </clipPath>
  </defs>
  <sodipodi:namedview
     id="base"
     pagecolor="#ffffff"
     bordercolor="#666666"
     borderopacity="1.0"
     inkscape:pageopacity="0.0"
     inkscape:pageshadow="2"
     inkscape:zoom="3.959798"
     inkscape:cx="132.10567"
     inkscape:cy="69.686186"
     inkscape:document-units="mm"
     inkscape:current-layer="layer1"
     showgrid="false"
     inkscape:window-width="1600"
     inkscape:window-height="850"
     inkscape:window-x="0"
     inkscape:window-y="0"
     inkscape:window-maximized="1" />
  <metadata
     id="metadata12342">
    <rdf:RDF>
      <cc:Work
         rdf:about="">
        <dc:format>image/svg+xml</dc:format>
        <dc:type
           rdf:resource="http://purl.org/dc/dcmitype/StillImage" />
        <dc:title></dc:title>
      </cc:Work>
    </rdf:RDF>
  </metadata>
  <g
     inkscape:label="Layer 1"
     inkscape:groupmode="layer"
     id="layer1"
     transform="translate(0,-289)">
    <g
       transform="matrix(0.35277777,0,0,-0.35277777,-11.406365,410.05825)"
       id="g5878">
      <g
         id="g5880"
         clip-path="url(#clipPath5884)">
        <g
           id="g5886"
           transform="translate(41.386,322.8934)">
          <path
             d="m 0,0 c -3.458,0.029 -6.476,2.36 -7.344,5.676 -0.905,3.455 0.624,6.983 3.795,8.752 2.96,1.652 6.816,1.091 9.171,-1.396 C 5.996,12.637 6.968,12.146 6.046,11.465 5.374,10.969 4.751,9.988 3.601,11.105 1.406,13.236 -1.533,13.11 -3.494,11.008 -5.314,9.055 -5.277,6.148 -3.407,4.21 -1.615,2.354 1.504,2.148 3.37,4.017 4.414,5.062 5.057,4.627 5.93,4.02 6.618,3.54 6.393,3.108 5.969,2.638 4.372,0.869 2.413,-0.079 0,0"
             style="fill:#ffffff;fill-opacity:1;fill-rule:nonzero;stroke:none"
             id="path5888"
             inkscape:connector-curvature="0" />
        </g>
        <g
           id="g5890"
           transform="translate(81.9797,327.7469)">
          <path
             d="m 0,0 c 0,-1.024 -0.01,-2.048 0.002,-3.072 0.012,-0.952 0.103,-1.805 -1.352,-1.816 -1.399,-0.01 -1.437,0.73 -1.421,1.743 0.03,1.894 0.014,3.789 0.003,5.683 -0.019,3.131 -1.765,5.216 -4.375,5.242 -2.658,0.027 -4.419,-2.007 -4.443,-5.154 -0.016,-2.1 -0.044,-4.199 0.008,-6.297 0.025,-1.007 -0.467,-1.196 -1.316,-1.187 -0.847,0.007 -1.502,0.046 -1.476,1.194 0.057,2.456 -0.068,4.919 0.049,7.371 0.179,3.797 3.258,6.733 6.995,6.835 3.645,0.099 6.794,-2.638 7.215,-6.401 C 0.041,2.776 -0.087,1.381 -0.087,0 Z"
             style="fill:#ffffff;fill-opacity:1;fill-rule:nonzero;stroke:none"
             id="path5892"
             inkscape:connector-curvature="0" />
        </g>
        <g
           id="g5894"
           transform="translate(99.0793,327.7469)">
          <path
             d="m 0,0 c 0,-1.024 -0.01,-2.048 0.002,-3.072 0.012,-0.952 0.103,-1.805 -1.352,-1.816 -1.399,-0.01 -1.437,0.73 -1.421,1.743 0.03,1.894 0.014,3.789 0.002,5.683 -0.018,3.131 -1.764,5.216 -4.374,5.242 -2.658,0.027 -4.419,-2.007 -4.443,-5.154 -0.016,-2.1 -0.044,-4.199 0.008,-6.297 0.025,-1.007 -0.467,-1.196 -1.316,-1.187 -0.847,0.007 -1.502,0.046 -1.476,1.194 0.057,2.456 -0.068,4.919 0.049,7.371 0.179,3.797 3.258,6.733 6.995,6.835 3.645,0.099 6.794,-2.638 7.215,-6.401 C 0.041,2.776 -0.087,1.381 -0.087,0 Z"
             style="fill:#ffffff;fill-opacity:1;fill-rule:nonzero;stroke:none"
             id="path5896"
             inkscape:connector-curvature="0" />
        </g>
        <g
           id="g5898"
           transform="translate(108.9104,331.9305)">
          <path
             d="M 0,0 C 1.122,0 2.244,0.025 3.364,-0.007 4.459,-0.038 4.789,0.288 4.163,1.315 2.333,4.319 -2.438,4.296 -4.188,1.27 -4.67,0.436 -4.683,-0.046 -3.517,-0.01 -2.345,0.027 -1.172,-0.002 0,0 m 1.358,-2.771 c -1.638,0 -3.278,-0.022 -4.916,0.006 -1.027,0.019 -1.131,-0.351 -0.655,-1.181 1.492,-2.602 5.218,-3.116 7.595,-1.01 0.484,0.429 0.794,0.999 1.65,0.474 1.494,-0.917 1.58,-1.191 0.307,-2.429 -2.576,-2.506 -6.658,-2.86 -9.616,-0.831 -3.119,2.138 -4.265,5.904 -2.843,9.343 1.378,3.331 4.987,5.289 8.482,4.603 3.731,-0.732 6.25,-3.742 6.347,-7.427 0.032,-1.229 -0.401,-1.625 -1.59,-1.566 -1.584,0.077 -3.174,0.018 -4.761,0.018"
             style="fill:#ffffff;fill-opacity:1;fill-rule:nonzero;stroke:none"
             id="path5900"
             inkscape:connector-curvature="0" />
        </g>
        <g
           id="g5902"
           transform="translate(125.6233,322.8904)">
          <path
             d="m 0,0 c -3.458,0.029 -6.476,2.361 -7.344,5.676 -0.905,3.455 0.624,6.983 3.795,8.753 2.96,1.651 6.816,1.09 9.171,-1.397 C 5.996,12.637 6.968,12.146 6.046,11.466 5.374,10.969 4.751,9.988 3.601,11.106 1.406,13.236 -1.533,13.111 -3.494,11.008 -5.314,9.055 -5.277,6.148 -3.407,4.21 -1.615,2.354 1.504,2.148 3.37,4.017 4.414,5.062 5.057,4.628 5.93,4.02 6.618,3.54 6.393,3.108 5.969,2.639 4.372,0.87 2.413,-0.079 0,0"
             style="fill:#ffffff;fill-opacity:1;fill-rule:nonzero;stroke:none"
             id="path5904"
             inkscape:connector-curvature="0" />
        </g>
        <g
           id="g5906"
           transform="translate(135.0989,334.7274)">
          <path
             d="M 0,0 C 0,1.893 0.035,3.785 -0.015,5.676 -0.041,6.653 0.287,7.031 1.301,7.041 2.35,7.051 2.813,6.72 2.747,5.638 2.691,4.721 2.819,3.789 2.723,2.879 2.562,1.363 3.076,0.656 4.67,0.901 5.651,1.053 6.161,0.73 6.174,-0.412 6.187,-1.571 5.785,-2.041 4.659,-1.858 3.062,-1.599 2.672,-2.322 2.709,-3.835 2.803,-7.621 3.313,-8.466 7.016,-9.916 8.154,-10.362 7.692,-11.282 7.664,-12.01 7.632,-12.864 6.886,-12.647 6.36,-12.592 3.056,-12.243 0.163,-9.05 0.019,-5.521 -0.057,-3.684 0.005,-1.841 0.005,0 Z"
             style="fill:#ffffff;fill-opacity:1;fill-rule:nonzero;stroke:none"
             id="path5908"
             inkscape:connector-curvature="0" />
        </g>
        <g
           id="g5910"
           transform="translate(152.2346,325.6863)">
          <path
             d="M 0,0 C 2.78,0.01 4.986,2.239 4.945,5 4.906,7.645 2.637,9.863 -0.025,9.858 -2.702,9.854 -4.913,7.651 -4.931,4.97 -4.949,2.131 -2.825,-0.011 0,0 m 7.722,1.704 c 0,-1.18 -0.001,-2.359 0,-3.538 10e-4,-0.528 -0.185,-0.957 -0.776,-0.903 -0.657,0.06 -1.716,-0.456 -1.879,0.442 -0.248,1.366 -0.765,0.777 -1.394,0.448 -3.921,-2.048 -8.558,-0.624 -10.551,3.232 -1.408,2.723 -1.011,6.163 0.983,8.504 2.019,2.37 5.253,3.294 8.226,2.348 C 5.379,11.269 7.492,8.552 7.701,5.24 7.774,4.065 7.713,2.883 7.713,1.704 Z"
             style="fill:#ffffff;fill-opacity:1;fill-rule:nonzero;stroke:none"
             id="path5912"
             inkscape:connector-curvature="0" />
        </g>
        <g
           id="g5914"
           transform="translate(174.8284,322.0369)">
          <path
             d="m 0,0 c -3.354,0.028 -6.28,2.289 -7.122,5.504 -0.878,3.351 0.605,6.772 3.68,8.488 2.871,1.603 6.61,1.058 8.894,-1.353 C 5.815,12.255 6.758,11.78 5.863,11.119 5.211,10.638 4.607,9.687 3.491,10.771 1.363,12.837 -1.487,12.715 -3.389,10.676 -5.154,8.781 -5.118,5.963 -3.305,4.083 -1.566,2.283 1.458,2.083 3.268,3.896 4.28,4.909 4.904,4.487 5.751,3.897 6.418,3.433 6.199,3.015 5.788,2.559 4.24,0.843 2.34,-0.077 0,0"
             style="fill:#ffffff;fill-opacity:1;fill-rule:nonzero;stroke:none"
             id="path5916"
             inkscape:connector-curvature="0" />
        </g>
        <g
           id="g5918"
           transform="translate(189.885,324.7479)">
          <path
             d="M 0,0 C 2.696,0.01 4.835,2.172 4.796,4.849 4.758,7.413 2.557,9.565 -0.024,9.562 -2.621,9.557 -4.765,7.42 -4.781,4.82 -4.8,2.066 -2.74,-0.01 0,0 m 7.488,1.652 c 0,-1.143 -0.001,-2.287 10e-4,-3.43 0,-0.513 -0.179,-0.929 -0.753,-0.876 C 6.099,-2.596 5.073,-3.097 4.915,-2.226 4.674,-0.9 4.172,-1.472 3.562,-1.79 -0.24,-3.777 -4.737,-2.396 -6.67,1.343 -8.036,3.985 -7.65,7.32 -5.717,9.59 c 1.958,2.299 5.095,3.194 7.978,2.278 C 5.217,10.929 7.266,8.294 7.468,5.082 7.54,3.943 7.479,2.796 7.479,1.652 Z"
             style="fill:#ffffff;fill-opacity:1;fill-rule:nonzero;stroke:none"
             id="path5920"
             inkscape:connector-curvature="0" />
        </g>
        <g
           id="g5922"
           transform="translate(200.3752,326.8436)">
          <path
             d="m 0,0 c 0.001,1.044 -0.036,2.09 0.008,3.132 0.144,3.466 2.952,6.54 6.298,6.919 0.459,0.052 1.146,0.3 1.122,-0.488 C 7.406,8.864 8.018,7.789 6.884,7.519 3.357,6.678 2.458,4.253 2.654,1.011 2.748,-0.524 2.628,-2.071 2.683,-3.61 2.724,-4.737 2.042,-4.735 1.234,-4.757 0.377,-4.78 -0.059,-4.524 -0.014,-3.578 0.043,-2.388 0,-1.193 0,0"
             style="fill:#ffffff;fill-opacity:1;fill-rule:nonzero;stroke:none"
             id="path5924"
             inkscape:connector-curvature="0" />
        </g>
        <g
           id="g5926"
           transform="translate(215.9983,330.8455)">
          <path
             d="M 0,0 C 1.088,0 2.176,0.024 3.263,-0.007 4.324,-0.037 4.645,0.279 4.037,1.275 2.262,4.188 -2.364,4.166 -4.062,1.23 -4.529,0.422 -4.542,-0.045 -3.41,-0.01 -2.274,0.026 -1.137,-0.002 0,0 m 1.316,-2.688 c -1.588,0 -3.178,-0.021 -4.766,0.007 -0.997,0.018 -1.099,-0.341 -0.636,-1.146 1.447,-2.523 5.06,-3.021 7.365,-0.98 0.47,0.415 0.77,0.97 1.601,0.459 1.448,-0.888 1.532,-1.153 0.297,-2.355 -2.498,-2.43 -6.457,-2.773 -9.325,-0.806 -3.024,2.073 -4.136,5.727 -2.757,9.061 1.336,3.23 4.836,5.13 8.226,4.465 C 4.938,5.307 7.382,2.388 7.476,-1.186 7.507,-2.378 7.087,-2.762 5.934,-2.705 4.398,-2.63 2.856,-2.687 1.316,-2.688"
             style="fill:#ffffff;fill-opacity:1;fill-rule:nonzero;stroke:none"
             id="path5928"
             inkscape:connector-curvature="0" />
        </g>
        <g
           id="g5930"
           transform="translate(59.7121,338.284)">
          <path
             d="m 0,0 c -2.818,0.456 -4.719,-3.442 -4.719,-3.442 -0.124,-0.084 -0.226,-0.115 -0.347,0.005 -0.64,0.632 -1.286,1.261 -1.927,1.894 -0.147,0.145 0.001,0.209 0.094,0.279 0.828,0.627 1.748,1.061 2.752,1.32 0.648,0.167 1.306,0.261 1.937,0.225 C -1.434,0.312 -0.704,0.203 0,0"
             style="fill:#ffffff;fill-opacity:1;fill-rule:nonzero;stroke:none"
             id="path5932"
             inkscape:connector-curvature="0" />
        </g>
        <g
           id="g5934"
           transform="translate(64.1575,326.7127)">
          <path
             d="m 0,0 c -0.107,-0.176 -0.234,-0.34 -0.35,-0.511 -0.095,-0.142 -0.187,-0.154 -0.315,-0.028 -0.636,0.626 -1.272,1.251 -1.919,1.866 -0.155,0.148 -0.117,0.266 -0.029,0.418 0.442,0.768 0.654,1.604 0.634,2.482 -0.023,1.133 -0.399,2.153 -1.128,3.031 -1.232,1.482 -3.275,2.034 -5.081,1.371 -0.343,-0.127 -0.67,-0.295 -0.976,-0.5 0,0 1.9,3.898 4.719,3.442 0.377,-0.109 0.748,-0.244 1.114,-0.4 0.255,-0.109 0.34,-0.241 0.289,-0.534 C -3.291,9.19 -2.073,7.693 -0.605,7.618 -0.362,7.606 -0.115,7.603 0.125,7.632 0.31,7.654 0.403,7.596 0.474,7.435 1.597,4.874 1.462,2.395 0,0"
             style="fill:#ffffff;fill-opacity:1;fill-rule:nonzero;stroke:none"
             id="path5936"
             inkscape:connector-curvature="0" />
        </g>
        <g
           id="g5938"
           transform="translate(62.2229,324.6258)">
          <path
             d="m 0,0 c -1.1,-0.805 -2.326,-1.287 -3.674,-1.471 -0.336,-0.046 -0.673,-0.068 -0.878,-0.059 -1.173,-0.007 -2.184,0.199 -3.151,0.59 3.61,-1.414 5.464,3.113 5.464,3.113 0.221,0.142 0.356,0.15 0.549,-0.045 C -1.125,1.552 -0.543,0.991 0.044,0.437 0.24,0.251 0.194,0.143 0,0"
             style="fill:#ffffff;fill-opacity:1;fill-rule:nonzero;stroke:none"
             id="path5940"
             inkscape:connector-curvature="0" />
        </g>
        <g
           id="g5942"
           transform="translate(59.9836,326.7986)">
          <path
             d="m 0,0 c 0,0 -1.854,-4.527 -5.464,-3.113 -0.015,0.006 -0.03,0.011 -0.045,0.018 -0.055,0.024 -0.11,0.046 -0.166,0.071 -0.231,0.101 -0.315,0.214 -0.266,0.491 0.331,1.866 -1.226,3.455 -3.113,3.174 -0.314,-0.046 -0.471,0.019 -0.595,0.32 -0.955,2.325 -0.859,4.594 0.332,6.812 0.164,0.308 0.36,0.593 0.566,0.874 0.119,0.165 0.224,0.193 0.382,0.036 C -7.763,8.081 -7.15,7.485 -6.531,6.896 -6.375,6.746 -6.362,6.63 -6.468,6.436 -7.654,4.26 -7.099,1.616 -5.162,0.175 -3.66,-0.943 -1.589,-1.021 0,0"
             style="fill:#ffffff;fill-opacity:1;fill-rule:nonzero;stroke:none"
             id="path5944"
             inkscape:connector-curvature="0" />
        </g>
        <g
           id="g5946"
           transform="translate(61.634,337.0477)">
          <path
             d="M 0,0 C 0.004,1.23 1.023,2.188 2.322,2.183 3.475,2.177 4.462,1.164 4.461,-0.01 4.46,-1.222 3.451,-2.207 2.209,-2.209 0.994,-2.21 -0.004,-1.212 0,0"
             style="fill:#ffffff;fill-opacity:1;fill-rule:nonzero;stroke:none"
             id="path5948"
             inkscape:connector-curvature="0" />
        </g>
        <g
           id="g5950"
           transform="translate(49.1096,324.7615)">
          <path
             d="M 0,0 C 0.002,1.225 0.978,2.188 2.216,2.186 3.453,2.184 4.434,1.225 4.448,0.004 4.462,-1.202 3.452,-2.175 2.188,-2.172 0.954,-2.169 -0.002,-1.221 0,0"
             style="fill:#ffffff;fill-opacity:1;fill-rule:nonzero;stroke:none"
             id="path5952"
             inkscape:connector-curvature="0" />
        </g>
        <g
           id="g5954"
           transform="translate(52.719,336.741)">
          <path
             d="M 0,0 C 0,0 3.368,2.196 6.35,1.574 6.35,1.574 2.934,2.479 0,0"
             style="fill:#ffffff;fill-opacity:1;fill-rule:nonzero;stroke:none"
             id="path5956"
             inkscape:connector-curvature="0" />
        </g>
        <g
           id="g5958"
           transform="translate(54.9934,334.8416)">
          <path
             d="M 0,0 C 0,0 2.924,4.054 5.191,3.291 5.191,3.291 2.544,4.651 0,0"
             style="fill:#ffffff;fill-opacity:1;fill-rule:nonzero;stroke:none"
             id="path5960"
             inkscape:connector-curvature="0" />
        </g>
        <g
           id="g5962"
           transform="translate(60.1233,326.9471)">
          <path
             d="m 0,0 c 0,0 -2.773,-4.157 -5.068,-3.478 0,0 2.695,-1.263 5.068,3.478"
             style="fill:#ffffff;fill-opacity:1;fill-rule:nonzero;stroke:none"
             id="path5964"
             inkscape:connector-curvature="0" />
        </g>
        <g
           id="g5966"
           transform="translate(49.4787,323.9022)">
          <path
             d="M 0,0 C 0,0 -0.522,1.761 1.025,2.667 1.025,2.667 -0.754,2.062 0,0"
             style="fill:#ffffff;fill-opacity:1;fill-rule:nonzero;stroke:none"
             id="path5968"
             inkscape:connector-curvature="0" />
        </g>
      </g>
    </g>
  </g>
</svg>
