<?xml version="1.0" encoding="UTF-8" standalone="no"?>
<svg
   xmlns:dc="http://purl.org/dc/elements/1.1/"
   xmlns:cc="http://creativecommons.org/ns#"
   xmlns:rdf="http://www.w3.org/1999/02/22-rdf-syntax-ns#"
   xmlns:svg="http://www.w3.org/2000/svg"
   xmlns="http://www.w3.org/2000/svg"
   xmlns:sodipodi="http://sodipodi.sourceforge.net/DTD/sodipodi-0.dtd"
   xmlns:inkscape="http://www.inkscape.org/namespaces/inkscape"
   viewBox="0 0 196.35529 69.817426"
   version="1.1"
   id="svg255"
   sodipodi:docname="play.svg"
   width="196.35529"
   height="69.817429"
   inkscape:version="0.92.4 (5da689c313, 2019-01-14)">
  <metadata
     id="metadata259">
    <rdf:RDF>
      <cc:Work
         rdf:about="">
        <dc:format>image/svg+xml</dc:format>
        <dc:type
           rdf:resource="http://purl.org/dc/dcmitype/StillImage" />
        <dc:title>Ativo 12</dc:title>
      </cc:Work>
    </rdf:RDF>
  </metadata>
  <sodipodi:namedview
     pagecolor="#ffffff"
     bordercolor="#666666"
     borderopacity="1"
     objecttolerance="10"
     gridtolerance="10"
     guidetolerance="10"
     inkscape:pageopacity="0"
     inkscape:pageshadow="2"
     inkscape:window-width="1366"
     inkscape:window-height="704"
     id="namedview257"
     showgrid="false"
     fit-margin-top="0"
     fit-margin-left="0"
     fit-margin-right="0"
     fit-margin-bottom="0"
     inkscape:zoom="2.8672515"
     inkscape:cx="135.67571"
     inkscape:cy="39.044596"
     inkscape:window-x="0"
     inkscape:window-y="27"
     inkscape:window-maximized="1"
     inkscape:current-layer="svg255" />
  <defs
     id="defs188">
    <style
       id="style153">.cls-1{fill:none;}.cls-2{fill:#231f20;}.cls-3{clip-path:url(#clip-path);}.cls-4{fill:url(#linear-gradient);}.cls-5{fill:url(#linear-gradient-2);}.cls-6{fill:url(#linear-gradient-3);}.cls-7{fill:url(#linear-gradient-4);}.cls-8{fill:#f9f9f9;}</style>
    <clipPath
       id="clip-path">
      <path
         class="cls-1"
         d="M 29.4,19.53 23.28,16 11.48,9.19 c -0.65,-0.38 -1.3,-0.15 -1.3,0.64 v 27.76 c 0,0.59 0.46,0.85 1,0.52 l 12.07,-7 6.12,-3.53 5.88,-3.4 c 0.69,-0.4 0.62,-0.94 0,-1.26 C 34.63,22.6 29.4,19.53 29.4,19.53 Z"
         id="path155"
         inkscape:connector-curvature="0"
         style="fill:none" />
    </clipPath>
    <linearGradient
       id="linear-gradient"
       x1="17.75"
       y1="8.54"
       x2="17.75"
       y2="38.599998"
       gradientUnits="userSpaceOnUse">
      <stop
         offset="0"
         stop-color="#257db0"
         id="stop158" />
      <stop
         offset="0.21"
         stop-color="#3c90b3"
         id="stop160" />
      <stop
         offset="0.74"
         stop-color="#73bdb9"
         id="stop162" />
      <stop
         offset="1"
         stop-color="#89cebc"
         id="stop164" />
    </linearGradient>
    <linearGradient
       id="linear-gradient-2"
       x1="10.18"
       y1="16"
       x2="29.4"
       y2="16"
       gradientUnits="userSpaceOnUse">
      <stop
         offset="0"
         stop-color="#51bfac"
         id="stop167" />
      <stop
         offset="1"
         stop-color="#dee899"
         id="stop169" />
    </linearGradient>
    <linearGradient
       id="linear-gradient-3"
       x1="19.790001"
       y1="23.57"
       x2="19.790001"
       y2="38.709999"
       gradientUnits="userSpaceOnUse">
      <stop
         offset="0"
         stop-color="#eb403d"
         id="stop172" />
      <stop
         offset="0.19"
         stop-color="#d64252"
         id="stop174" />
      <stop
         offset="0.74"
         stop-color="#9f4887"
         id="stop176" />
      <stop
         offset="1"
         stop-color="#894a9c"
         id="stop178" />
    </linearGradient>
    <linearGradient
       id="linear-gradient-4"
       x1="30.860001"
       y1="19.530001"
       x2="30.860001"
       y2="27.610001"
       gradientUnits="userSpaceOnUse">
      <stop
         offset="0"
         stop-color="#f48779"
         id="stop181" />
      <stop
         offset="0.61"
         stop-color="#fab076"
         id="stop183" />
      <stop
         offset="1"
         stop-color="#fdc674"
         id="stop185" />
    </linearGradient>
  </defs>
  <title
     id="title190">Ativo 12</title>
  <g
     id="Camada_2"
     data-name="Camada 2"
     transform="scale(1.4473007,1.5731732)">
    <g
       id="Camada_1-2"
       data-name="Camada 1">
      <rect
         class="cls-2"
         width="135.67"
         height="44.380001"
         rx="6"
         ry="6"
         id="rect192"
         x="0"
         y="0"
         style="fill:#231f20" />
      <g
         id="PLAY">
        <g
           class="cls-3"
           clip-path="url(#clip-path)"
           id="g202">
          <polygon
             class="cls-4"
             points="25.33,23.57 10.18,8.54 10.18,23.57 10.18,38.6 "
             id="polygon194"
             style="fill:url(#linear-gradient)" />
          <polygon
             class="cls-5"
             points="10.18,8.44 10.18,8.54 25.33,23.57 29.4,19.54 23.28,16 "
             id="polygon196"
             style="fill:url(#linear-gradient-2)" />
          <polygon
             class="cls-6"
             points="23.28,31.14 29.4,27.61 25.33,23.57 10.18,38.6 10.18,38.71 "
             id="polygon198"
             style="fill:url(#linear-gradient-3)" />
          <polygon
             class="cls-7"
             points="36.39,23.57 29.4,19.54 25.33,23.57 29.4,27.61 "
             id="polygon200"
             style="fill:url(#linear-gradient-4)" />
        </g>
      </g>
      <path
         class="cls-8"
         d="m 105.58,29.45 a 3.74,3.74 0 0 1 -1.55,-0.32 2.86,2.86 0 0 1 -1.19,-1 h -0.09 a 12.52,12.52 0 0 1 0.09,1.45 v 3.6 h -1.32 V 20.55 h 1.07 l 0.19,1.19 h 0.06 a 3,3 0 0 1 1.19,-1 3.49,3.49 0 0 1 1.55,-0.32 3.24,3.24 0 0 1 2.69,1.18 5.27,5.27 0 0 1 0.94,3.34 5.19,5.19 0 0 1 -1,3.34 3.23,3.23 0 0 1 -2.63,1.17 z m -0.19,-7.94 a 2.33,2.33 0 0 0 -1.93,0.74 3.81,3.81 0 0 0 -0.62,2.36 v 0.3 a 4.34,4.34 0 0 0 0.62,2.63 2.31,2.31 0 0 0 2,0.8 2.06,2.06 0 0 0 1.78,-0.92 4.32,4.32 0 0 0 0.64,-2.53 4.19,4.19 0 0 0 -0.64,-2.51 2.12,2.12 0 0 0 -1.85,-0.87 z"
         id="path205"
         inkscape:connector-curvature="0"
         style="fill:#f9f9f9" />
      <path
         class="cls-8"
         d="M 112.28,29.29 H 111 V 16.88 h 1.33 z"
         id="path207"
         inkscape:connector-curvature="0"
         style="fill:#f9f9f9" />
      <path
         class="cls-8"
         d="M 119.89,29.29 119.62,28 h -0.06 a 3.57,3.57 0 0 1 -1.3,1.11 3.92,3.92 0 0 1 -1.63,0.3 2.94,2.94 0 0 1 -2,-0.67 2.47,2.47 0 0 1 -0.74,-1.91 q 0,-2.64 4.23,-2.78 h 1.49 V 23.5 a 2.16,2.16 0 0 0 -0.45,-1.51 1.79,1.79 0 0 0 -1.41,-0.5 5.85,5.85 0 0 0 -2.47,0.67 l -0.41,-1 a 6.41,6.41 0 0 1 3,-0.75 3.32,3.32 0 0 1 2.32,0.7 2.89,2.89 0 0 1 0.75,2.22 v 6 z m -3,-0.94 a 2.69,2.69 0 0 0 1.94,-0.67 2.53,2.53 0 0 0 0.71,-1.9 V 25 l -1.33,0.05 a 4.89,4.89 0 0 0 -2.28,0.49 1.49,1.49 0 0 0 -0.69,1.36 1.37,1.37 0 0 0 0.43,1.09 1.82,1.82 0 0 0 1.23,0.36 z"
         id="path209"
         inkscape:connector-curvature="0"
         style="fill:#f9f9f9" />
      <path
         class="cls-8"
         d="m 121.64,20.55 h 1.42 l 1.91,5 a 19.08,19.08 0 0 1 0.78,2.46 h 0.07 c 0.07,-0.27 0.21,-0.73 0.43,-1.39 0.22,-0.66 0.94,-2.67 2.17,-6.05 h 1.42 l -3.76,10 a 4.91,4.91 0 0 1 -1.31,2.09 2.75,2.75 0 0 1 -1.82,0.62 5.32,5.32 0 0 1 -1.2,-0.14 V 32 a 4.22,4.22 0 0 0 1,0.1 2,2 0 0 0 2,-1.53 l 0.48,-1.25 z"
         id="path211"
         inkscape:connector-curvature="0"
         style="fill:#f9f9f9" />
      <path
         class="cls-8"
         d="m 81.06,21.36 a 3,3 0 0 1 -0.24,5.06 1.33,1.33 0 0 0 -0.51,0.9 1,1 0 0 0 0.48,0.78 l 0.66,0.51 A 3.2,3.2 0 0 1 83,31.18 c 0,1.71 -1.66,3.45 -4.81,3.45 -2.65,0 -3.93,-1.26 -3.93,-2.61 a 2.66,2.66 0 0 1 1.41,-2.24 8,8 0 0 1 3.49,-0.84 1.94,1.94 0 0 1 -0.55,-1.24 1.65,1.65 0 0 1 0.19,-0.71 h -0.59 a 2.88,2.88 0 0 1 -3,-2.86 3.25,3.25 0 0 1 1.17,-2.45 5,5 0 0 1 3.27,-1 h 3.76 l -1.17,0.66 z m -1.3,8.12 a 2.62,2.62 0 0 0 -0.42,0 7.14,7.14 0 0 0 -1.92,0.29 2.05,2.05 0 0 0 -1.57,1.88 c 0,1.3 1.26,2.23 3.22,2.23 1.75,0 2.69,-0.84 2.69,-2 0,-0.88 -0.61,-1.42 -2,-2.4 z M 80.29,26 a 1.84,1.84 0 0 0 0.46,-1.33 c 0,-1.32 -0.79,-3.37 -2.3,-3.37 a 1.69,1.69 0 0 0 -1.28,0.61 2.09,2.09 0 0 0 -0.4,1.35 c 0,1.22 0.71,3.25 2.28,3.25 A 1.86,1.86 0 0 0 80.29,26 Z"
         id="path213"
         inkscape:connector-curvature="0"
         style="fill:#f9f9f9" />
      <path
         class="cls-8"
         d="m 69.55,29.18 a 4.3,4.3 0 0 1 -4.45,-4.31 4.52,4.52 0 0 1 4.73,-4.43 4.27,4.27 0 0 1 4.36,4.31 4.46,4.46 0 0 1 -4.64,4.43 z m 2.28,-1.48 a 3.27,3.27 0 0 0 0.55,-2 c 0,-1.61 -0.76,-4.67 -3,-4.67 a 2.51,2.51 0 0 0 -1.64,0.62 2.76,2.76 0 0 0 -0.84,2.22 c 0,1.81 0.89,4.78 3.1,4.78 a 2.29,2.29 0 0 0 1.83,-0.95 z"
         id="path215"
         inkscape:connector-curvature="0"
         style="fill:#f9f9f9" />
      <path
         class="cls-8"
         d="m 59.66,29.18 a 4.3,4.3 0 0 1 -4.45,-4.31 4.52,4.52 0 0 1 4.72,-4.43 4.27,4.27 0 0 1 4.37,4.31 4.46,4.46 0 0 1 -4.64,4.43 z m 2.28,-1.48 a 3.27,3.27 0 0 0 0.55,-2 c 0,-1.61 -0.77,-4.67 -3,-4.67 a 2.51,2.51 0 0 0 -1.64,0.62 2.76,2.76 0 0 0 -0.85,2.2 c 0,1.81 0.89,4.78 3.1,4.78 a 2.32,2.32 0 0 0 1.84,-0.93 z"
         id="path217"
         inkscape:connector-curvature="0"
         style="fill:#f9f9f9" />
      <path
         class="cls-8"
         d="m 53.81,28.9 -2.62,0.6 a 19,19 0 0 1 -3,0.31 c -5.06,0 -7,-3.72 -7,-6.64 0,-3.56 2.73,-6.86 7.41,-6.86 a 10.9,10.9 0 0 1 2.81,0.38 7.25,7.25 0 0 1 2.42,1.14 l -1.52,1.45 -0.64,0.15 0.46,-0.74 A 5.29,5.29 0 0 0 48.18,17 a 5.06,5.06 0 0 0 -5.08,5.41 6.49,6.49 0 0 0 6.49,6.7 5.45,5.45 0 0 0 2.33,-0.46 V 25.67 L 49.15,25.81 50.62,25 h 3.89 l -0.48,0.46 a 0.44,0.44 0 0 0 -0.18,0.3 c 0,0.16 0,0.69 0,0.88 z"
         id="path219"
         inkscape:connector-curvature="0"
         style="fill:#f9f9f9" />
      <path
         class="cls-8"
         d="M 86.86,28.37 C 86.26,28.31 86.13,28.2 86.13,27.49 V 17.1 c 0,0 0,-0.08 0,-0.12 0.07,-0.64 0.26,-0.75 0.83,-1.08 H 84.34 L 83,16.56 h 1.41 v 11.33 c 0,0.37 -0.08,0.42 -0.5,1 h 3.25 l 0.68,-0.4 C 87.49,28.42 87.17,28.4 86.86,28.37 Z"
         id="path221"
         inkscape:connector-curvature="0"
         style="fill:#f9f9f9" />
      <path
         class="cls-8"
         d="m 94.33,28.54 c -0.2,0.11 -0.4,0.23 -0.6,0.32 a 4.14,4.14 0 0 1 -1.77,0.35 3.91,3.91 0 0 1 -2.42,-0.71 4.7,4.7 0 0 1 -1.86,-3.85 4.12,4.12 0 0 1 4.17,-4.2 3.52,3.52 0 0 1 1.88,0.51 3,3 0 0 1 1.27,1.8 l -4.28,1.73 -1.4,0.11 c 0.45,2.31 2,3.66 3.75,3.66 a 4.77,4.77 0 0 0 2.22,-0.63 z m -1.71,-5.43 c 0.34,-0.13 0.52,-0.24 0.52,-0.5 a 1.81,1.81 0 0 0 -1.8,-1.56 2.24,2.24 0 0 0 -2.1,2.53 c 0,0.31 0,0.64 0.06,1 z"
         id="path223"
         inkscape:connector-curvature="0"
         style="fill:#f9f9f9" />
      <path
         class="cls-8"
         d="m 96.09,20.57 v 1.2 h -0.15 v -1.2 h -0.4 v -0.12 h 0.95 v 0.12 z"
         id="path225"
         inkscape:connector-curvature="0"
         style="fill:#f9f9f9" />
      <path
         class="cls-8"
         d="m 97.73,21.77 v -1.21 0 l -0.37,1.21 h -0.11 l -0.38,-1.21 v 0 1.21 H 96.73 V 20.45 H 97 l 0.34,1.07 v 0 l 0.34,-1.07 h 0.23 v 1.32 z"
         id="path227"
         inkscape:connector-curvature="0"
         style="fill:#f9f9f9" />
      <path
         class="cls-8"
         d="M 44.81,12.74 H 43.9 a 5.43,5.43 0 0 0 -0.26,-1.07 h -1.31 a 5.46,5.46 0 0 0 -0.27,1.07 H 41.2 A 17.52,17.52 0 0 1 41.87,10.91 14.74,14.74 0 0 0 42.53,9 h 1.08 a 16.48,16.48 0 0 0 0.6,1.85 16.23,16.23 0 0 1 0.6,1.89 z M 43.5,11.13 A 14.94,14.94 0 0 1 43,9.54 v 0 q 0,0.11 -0.51,1.59 z"
         id="path229"
         inkscape:connector-curvature="0"
         style="fill:#f9f9f9" />
      <path
         class="cls-8"
         d="m 48.49,12.74 h -0.7 A 7.49,7.49 0 0 0 47,11.5 6.31,6.31 0 0 1 46.07,9.89 v 0 A 9.48,9.48 0 0 1 46.09,11 c 0,0.47 0,1 0,1.72 h -0.7 c 0,-0.59 0,-1.24 0,-1.94 0,-0.7 0,-1.29 0,-1.77 h 0.85 a 5.2,5.2 0 0 0 0.7,1.2 6.86,6.86 0 0 1 0.86,1.52 v 0 Q 47.74,11.1 47.74,10.59 c 0,-0.51 0,-1 0,-1.58 h 0.71 c 0,0.47 0,1.06 0,1.77 0,0.71 0.01,1.38 0.04,1.96 z"
         id="path231"
         inkscape:connector-curvature="0"
         style="fill:#f9f9f9" />
      <path
         class="cls-8"
         d="m 52.62,10.75 a 2.11,2.11 0 0 1 -0.52,1.42 1.82,1.82 0 0 1 -1.45,0.6 h -1.17 c 0,-0.58 0,-1.22 0,-1.94 0,-0.72 0,-1.29 0,-1.77 h 1.18 a 1.94,1.94 0 0 1 1.5,0.51 1.8,1.8 0 0 1 0.46,1.18 z m -0.78,0.13 a 1.4,1.4 0 0 0 -0.32,-0.93 1.2,1.2 0 0 0 -1,-0.37 h -0.34 q 0,0.57 0,1.2 0,0.63 0,1.35 a 2.22,2.22 0 0 0 0.37,0 1.07,1.07 0 0 0 0.91,-0.38 1.49,1.49 0 0 0 0.38,-0.87 z"
         id="path233"
         inkscape:connector-curvature="0"
         style="fill:#f9f9f9" />
      <path
         class="cls-8"
         d="m 56.43,12.74 h -0.85 a 6.1,6.1 0 0 0 -0.5,-1.25 0.67,0.67 0 0 0 -0.57,-0.24 h -0.32 c 0,0.49 0,1 0,1.48 h -0.8 c 0,-0.58 0,-1.22 0,-1.94 0,-0.72 0,-1.29 0,-1.77 h 1.36 c 0.87,0 1.3,0.3 1.3,0.89 a 1,1 0 0 1 -0.74,1 v 0 a 0.93,0.93 0 0 1 0.5,0.45 9.82,9.82 0 0 1 0.62,1.38 z m -1.07,-2.63 c 0,-0.37 -0.25,-0.56 -0.73,-0.56 a 2.17,2.17 0 0 0 -0.47,0 c 0,0.29 0,0.68 0,1.15 h 0.26 c 0.64,0.04 0.94,-0.17 0.94,-0.59 z"
         id="path235"
         inkscape:connector-curvature="0"
         style="fill:#f9f9f9" />
      <path
         class="cls-8"
         d="M 60.51,10.81 A 2.05,2.05 0 0 1 60,12.26 1.73,1.73 0 0 1 58.67,12.84 1.69,1.69 0 0 1 57.41,12.31 1.85,1.85 0 0 1 56.88,11 2,2 0 0 1 57.42,9.55 1.72,1.72 0 0 1 58.74,8.97 1.66,1.66 0 0 1 60,9.47 a 1.85,1.85 0 0 1 0.51,1.34 z m -0.79,0.09 a 1.5,1.5 0 0 0 -0.3,-1 0.92,0.92 0 0 0 -0.75,-0.37 0.86,0.86 0 0 0 -0.71,0.37 1.53,1.53 0 0 0 -0.29,1 1.44,1.44 0 0 0 0.31,1 0.92,0.92 0 0 0 0.75,0.37 0.86,0.86 0 0 0 0.7,-0.37 1.46,1.46 0 0 0 0.29,-1 z"
         id="path237"
         inkscape:connector-curvature="0"
         style="fill:#f9f9f9" />
      <path
         class="cls-8"
         d="m 62.12,12.74 h -0.8 c 0,-0.59 0,-1.24 0,-1.94 0,-0.7 0,-1.29 0,-1.77 h 0.8 q 0,0.71 0,1.77 c -0.03,0.71 -0.02,1.36 0,1.94 z"
         id="path239"
         inkscape:connector-curvature="0"
         style="fill:#f9f9f9" />
      <path
         class="cls-8"
         d="m 66.25,10.75 a 2.11,2.11 0 0 1 -0.52,1.42 1.81,1.81 0 0 1 -1.45,0.6 h -1.16 c 0,-0.58 0,-1.22 0,-1.94 0,-0.72 0,-1.29 0,-1.77 h 1.18 a 1.93,1.93 0 0 1 1.49,0.51 1.76,1.76 0 0 1 0.46,1.18 z m -0.78,0.13 a 1.39,1.39 0 0 0 -0.31,-0.93 1.22,1.22 0 0 0 -1,-0.37 h -0.34 q 0,0.57 0,1.2 0,0.63 0,1.35 a 2.31,2.31 0 0 0 0.37,0 1.07,1.07 0 0 0 0.91,-0.38 1.43,1.43 0 0 0 0.37,-0.87 z"
         id="path241"
         inkscape:connector-curvature="0"
         style="fill:#f9f9f9" />
      <path
         class="cls-8"
         d="M 71.73,12.74 H 70.82 A 6.37,6.37 0 0 0 70.56,11.67 H 69.24 A 5.12,5.12 0 0 0 69,12.74 H 68.14 A 18.72,18.72 0 0 1 68.8,10.91 14,14 0 0 0 69.45,9 h 1.08 a 16.48,16.48 0 0 0 0.6,1.85 16.23,16.23 0 0 1 0.6,1.89 z M 70.41,11.13 A 16.21,16.21 0 0 1 69.93,9.54 h -0.05 c 0,0.07 -0.17,0.6 -0.5,1.59 z"
         id="path243"
         inkscape:connector-curvature="0"
         style="fill:#f9f9f9" />
      <path
         class="cls-8"
         d="m 75.05,10 a 1.09,1.09 0 0 1 -0.5,1 2.23,2.23 0 0 1 -1.24,0.33 h -0.19 c 0,0.36 0,0.83 0,1.42 h -0.8 c 0,-0.55 0,-1.2 0,-1.94 0,-0.74 0,-1.28 0,-1.77 h 1.42 a 1.65,1.65 0 0 1 0.91,0.24 0.85,0.85 0 0 1 0.4,0.72 z m -0.73,0.15 c 0,-0.4 -0.27,-0.61 -0.81,-0.61 a 2.27,2.27 0 0 0 -0.43,0.05 c 0,0.36 0,0.76 0,1.22 h 0.17 c 0.75,0 1.07,-0.22 1.07,-0.66 z"
         id="path245"
         inkscape:connector-curvature="0"
         style="fill:#f9f9f9" />
      <path
         class="cls-8"
         d="m 78.47,10 a 1.11,1.11 0 0 1 -0.5,1 2.23,2.23 0 0 1 -1.24,0.33 h -0.2 c 0,0.36 0,0.83 0,1.42 h -0.8 c 0,-0.55 0,-1.2 0,-1.94 0,-0.74 0,-1.28 0,-1.77 h 1.41 a 1.68,1.68 0 0 1 0.92,0.24 0.85,0.85 0 0 1 0.41,0.72 z m -0.73,0.15 c 0,-0.4 -0.27,-0.61 -0.81,-0.61 A 2.18,2.18 0 0 0 76.5,9.59 c 0,0.36 0,0.76 0,1.22 h 0.17 c 0.72,0 1.07,-0.22 1.07,-0.66 z"
         id="path247"
         inkscape:connector-curvature="0"
         style="fill:#f9f9f9" />
      <path
         class="cls-8"
         d="M 84.06,10.81 A 2,2 0 0 1 83.52,12.26 1.71,1.71 0 0 1 82.2,12.84 1.69,1.69 0 0 1 80.94,12.31 1.85,1.85 0 0 1 80.43,11 2,2 0 0 1 81,9.52 a 1.71,1.71 0 0 1 1.32,-0.58 1.69,1.69 0 0 1 1.26,0.53 1.85,1.85 0 0 1 0.48,1.34 z m -0.79,0.09 a 1.5,1.5 0 0 0 -0.3,-1 1,1 0 0 0 -0.75,-0.37 0.86,0.86 0 0 0 -0.71,0.37 1.53,1.53 0 0 0 -0.29,1 1.49,1.49 0 0 0 0.3,1 1,1 0 0 0 0.76,0.37 0.86,0.86 0 0 0 0.7,-0.37 1.46,1.46 0 0 0 0.29,-1 z"
         id="path249"
         inkscape:connector-curvature="0"
         style="fill:#f9f9f9" />
      <path
         class="cls-8"
         d="m 87.92,12.74 h -0.7 A 6.75,6.75 0 0 0 86.43,11.5 7,7 0 0 1 85.5,9.89 v 0 A 9.65,9.65 0 0 1 85.53,11 c 0,0.47 0,1 0,1.72 h -0.71 c 0,-0.59 0,-1.24 0,-1.94 0,-0.7 0,-1.29 0,-1.77 h 0.85 a 5.69,5.69 0 0 0 0.7,1.2 6.86,6.86 0 0 1 0.86,1.52 v 0 a 9.64,9.64 0 0 1 -0.07,-1.14 c 0,-0.51 0,-1 0,-1.58 h 0.71 c 0,0.47 0,1.06 0,1.77 0,0.71 0.02,1.38 0.05,1.96 z"
         id="path251"
         inkscape:connector-curvature="0"
         style="fill:#f9f9f9" />
    </g>
  </g>
</svg>
