<?xml version="1.0" encoding="UTF-8" standalone="no"?>
<!-- Created with Inkscape (http://www.inkscape.org/) -->

<svg
   xmlns:dc="http://purl.org/dc/elements/1.1/"
   xmlns:cc="http://creativecommons.org/ns#"
   xmlns:rdf="http://www.w3.org/1999/02/22-rdf-syntax-ns#"
   xmlns:svg="http://www.w3.org/2000/svg"
   xmlns="http://www.w3.org/2000/svg"
   xmlns:sodipodi="http://sodipodi.sourceforge.net/DTD/sodipodi-0.dtd"
   xmlns:inkscape="http://www.inkscape.org/namespaces/inkscape"
   width="30mm"
   height="21.5mm"
   viewBox="0 0 30 21.5"
   version="1.1"
   id="svg6472"
   inkscape:version="0.92.4 (5da689c313, 2019-01-14)"
   sodipodi:docname="quot-left.svg">
  <defs
     id="defs6466" />
  <sodipodi:namedview
     id="base"
     pagecolor="#ffffff"
     bordercolor="#666666"
     borderopacity="1.0"
     inkscape:pageopacity="0.0"
     inkscape:pageshadow="2"
     inkscape:zoom="3.959798"
     inkscape:cx="26.633922"
     inkscape:cy="34.213925"
     inkscape:document-units="mm"
     inkscape:current-layer="layer1"
     showgrid="false"
     inkscape:window-width="1600"
     inkscape:window-height="836"
     inkscape:window-x="0"
     inkscape:window-y="27"
     inkscape:window-maximized="1" />
  <metadata
     id="metadata6469">
    <rdf:RDF>
      <cc:Work
         rdf:about="">
        <dc:format>image/svg+xml</dc:format>
        <dc:type
           rdf:resource="http://purl.org/dc/dcmitype/StillImage" />
        <dc:title />
      </cc:Work>
    </rdf:RDF>
  </metadata>
  <g
     inkscape:label="Camada 1"
     inkscape:groupmode="layer"
     id="layer1"
     transform="translate(0,-275.5)"
     style="opacity:0.6">
    <path
       inkscape:connector-curvature="0"
       id="path5818"
       style="opacity:0.44999701;fill:#74c387;fill-opacity:1;fill-rule:nonzero;stroke:none;stroke-width:0.38233057"
       d="m 27.535719,287.91003 c -0.899249,-0.72108 -1.657791,-1.08199 -2.277167,-1.08199 0.04053,-0.3747 0.345246,-0.98222 0.914151,-1.82296 0.568145,-0.8396 1.244105,-1.54577 2.030175,-2.11887 -0.06232,-0.71114 -0.444259,-1.25405 -1.147757,-1.62988 -1.424944,0.41483 -2.768452,1.21504 -4.028998,2.40065 -1.261304,1.18561 -2.25728,2.5142 -2.991351,3.98695 -0.732933,1.47159 -1.100353,2.87894 -1.100353,4.22322 0,1.34351 0.450003,2.40065 1.348862,3.17105 0.89887,0.77078 2.050442,1.15578 3.45513,1.15578 1.405446,0 2.614371,-0.54328 3.627167,-1.63025 1.012416,-1.08582 1.518613,-2.28672 1.518613,-3.60117 0,-1.31332 -0.449234,-2.3307 -1.348472,-3.05253" />
    <path
       inkscape:connector-curvature="0"
       id="path5822"
       style="opacity:0.44999701;fill:#74c387;fill-opacity:1;fill-rule:nonzero;stroke:none;stroke-width:0.38233057"
       d="m 16.439912,287.91003 c -0.898859,-0.72108 -1.658929,-1.08199 -2.278305,-1.08199 0.04172,-0.3747 0.345246,-0.98222 0.913771,-1.82296 0.568525,-0.8396 1.234926,-1.54577 2.00035,-2.11887 -0.06232,-0.73026 -0.445408,-1.27469 -1.147367,-1.62988 -2.128441,0.63237 -4.014475,2.04508 -5.657342,4.23813 -1.642499,2.19382 -2.4633579,4.14026 -2.4633579,5.83896 0,1.69946 0.4534389,2.93438 1.3633839,3.70478 0.909956,0.77078 2.066882,1.15578 3.471949,1.15578 1.405066,0 2.613223,-0.54328 3.626788,-1.63025 1.011267,-1.08582 1.518613,-2.28672 1.518613,-3.60117 0,-1.31332 -0.449234,-2.3307 -1.348483,-3.05253" />
    <path
       inkscape:connector-curvature="0"
       id="path5828"
       style="opacity:0.44999701;fill:#4a9dce;fill-opacity:1;fill-rule:nonzero;stroke:none;stroke-width:0.38233057"
       d="m 26.160218,284.81742 c -1.149286,-0.92218 -2.119262,-1.38289 -2.910686,-1.38289 0.05159,-0.47906 0.441203,-1.25633 1.168024,-2.33068 0.72642,-1.07321 1.590869,-1.9755 2.594875,-2.70806 -0.07912,-0.90917 -0.567767,-1.60349 -1.466625,-2.08369 -1.821799,0.53029 -3.538472,1.55302 -5.149986,3.0682 -1.611915,1.51594 -2.885456,3.21463 -3.824078,5.09608 -0.936704,1.88145 -1.406205,3.6807 -1.406205,5.3989 0,1.71743 0.575017,3.06896 1.723924,4.05308 1.149285,0.98526 2.620495,1.47771 4.417063,1.47771 1.79658,0 3.341951,-0.69431 4.636148,-2.08371 1.293807,-1.38862 1.94109,-2.92291 1.94109,-4.60325 0,-1.67882 -0.574258,-2.97989 -1.723544,-3.90169" />
    <path
       inkscape:connector-curvature="0"
       id="path5832"
       style="opacity:0.44999701;fill:#4a9dce;fill-opacity:1;fill-rule:nonzero;stroke:none;stroke-width:0.38233057"
       d="m 11.977059,284.81742 c -1.149286,-0.92218 -2.1207888,-1.38289 -2.9122128,-1.38289 0.053105,-0.47906 0.4415936,-1.25633 1.1680238,-2.33068 0.72643,-1.07321 1.578253,-1.9755 2.557018,-2.70806 -0.07955,-0.93365 -0.569284,-1.62948 -1.466614,-2.08369 -2.7210463,0.80824 -5.1316352,2.61437 -7.2317781,5.41723 -2.0993743,2.8044 -3.14810767,5.29261 -3.14810767,7.46348 0,2.17279 0.57922177,3.75143 1.74227147,4.73555 1.1630497,0.98526 2.6415309,1.47771 4.4377191,1.47771 1.7961881,0 3.3404212,-0.69431 4.6361352,-2.08371 1.292658,-1.38862 1.941468,-2.92291 1.941468,-4.60325 0,-1.67882 -0.574637,-2.97989 -1.723923,-3.90169" />
  </g>
</svg>
