<?xml version="1.0" encoding="UTF-8" standalone="no"?>
<!-- Created with Inkscape (http://www.inkscape.org/) -->

<svg
   xmlns:dc="http://purl.org/dc/elements/1.1/"
   xmlns:cc="http://creativecommons.org/ns#"
   xmlns:rdf="http://www.w3.org/1999/02/22-rdf-syntax-ns#"
   xmlns:svg="http://www.w3.org/2000/svg"
   xmlns="http://www.w3.org/2000/svg"
   xmlns:sodipodi="http://sodipodi.sourceforge.net/DTD/sodipodi-0.dtd"
   xmlns:inkscape="http://www.inkscape.org/namespaces/inkscape"
   width="30mm"
   height="21.5mm"
   viewBox="0 0 30 21.5"
   version="1.1"
   id="svg6421"
   inkscape:version="0.92.4 (5da689c313, 2019-01-14)"
   sodipodi:docname="quot-right.svg">
  <defs
     id="defs6415" />
  <sodipodi:namedview
     id="base"
     pagecolor="#ffffff"
     bordercolor="#666666"
     borderopacity="1.0"
     inkscape:pageopacity="0.0"
     inkscape:pageshadow="2"
     inkscape:zoom="3.959798"
     inkscape:cx="88.755771"
     inkscape:cy="36.932682"
     inkscape:document-units="mm"
     inkscape:current-layer="layer1"
     showgrid="false"
     inkscape:window-width="1600"
     inkscape:window-height="836"
     inkscape:window-x="0"
     inkscape:window-y="27"
     inkscape:window-maximized="1" />
  <metadata
     id="metadata6418">
    <rdf:RDF>
      <cc:Work
         rdf:about="">
        <dc:format>image/svg+xml</dc:format>
        <dc:type
           rdf:resource="http://purl.org/dc/dcmitype/StillImage" />
        <dc:title />
      </cc:Work>
    </rdf:RDF>
  </metadata>
  <g
     inkscape:label="Camada 1"
     inkscape:groupmode="layer"
     id="layer1"
     transform="translate(0,-275.5)"
     style="opacity:0.6">
    <path
       inkscape:connector-curvature="0"
       id="path5854"
       style="opacity:0.44999701;fill:#74c387;fill-opacity:1;fill-rule:nonzero;stroke:none;stroke-width:0.35277775"
       d="m 2.4708677,284.66594 c 0.89464,0.71791 1.65029,1.07703 2.26695,1.07703 -0.0402,0.37289 -0.34396,0.97826 -0.90981,1.81505 -0.56586,0.83573 -1.23931,1.53881 -2.02142,2.10925 0.0617,0.70838 0.44238,1.24884 1.14229,1.62278 1.41923,-0.4131 2.75661,-1.20967 4.01144,-2.38971 1.25554,-1.1804 2.24719,-2.50332 2.97815,-3.96911 0.7295393,-1.46508 1.0950193,-2.86632 1.0950193,-4.2044 0,-1.33774 -0.44767,-2.39007 -1.3426693,-3.15701 -0.89464,-0.76729 -2.04117,-1.15076 -3.43994,-1.15076 -1.39876,0 -2.60244,0.54081 -3.61068,1.62313 -1.00788,1.08091 -1.512,2.27647 -1.512,3.58528 0,1.30739 0.44767,2.32057 1.34267,3.03847" />
    <path
       inkscape:connector-curvature="0"
       id="path5858"
       style="opacity:0.44999701;fill:#74c387;fill-opacity:1;fill-rule:nonzero;stroke:none;stroke-width:0.35277775"
       d="m 13.516877,284.66594 c 0.895,0.71791 1.65171,1.07703 2.26836,1.07703 -0.0416,0.37289 -0.3436,0.97826 -0.90946,1.81505 -0.56621,0.83573 -1.22978,1.53881 -1.99178,2.10925 0.0621,0.72743 0.44344,1.26895 1.14194,1.62278 2.11949,-0.62971 3.99697,-2.03588 5.63245,-4.21922 1.63548,-2.18369 2.45251,-4.1215 2.45251,-5.81272 0,-1.69227 -0.45191,-2.92135 -1.35749,-3.68829 -0.90593,-0.76729 -2.05705,-1.15076 -3.45616,-1.15076 -1.39912,0 -2.60174,0.54081 -3.61068,1.62313 -1.00683,1.08091 -1.51236,2.27647 -1.51236,3.58528 0,1.30739 0.44803,2.32057 1.34267,3.03847" />
    <path
       inkscape:connector-curvature="0"
       id="path5862"
       style="opacity:0.44999701;fill:#4a9dce;fill-opacity:1;fill-rule:nonzero;stroke:none;stroke-width:0.35277775"
       d="m 3.8399577,287.74517 c 1.14441,0.91792 2.10996,1.37653 2.89807,1.37653 -0.0519,0.47696 -0.43921,1.2506 -1.16311,2.32022 -0.72284,1.06857 -1.58362,1.96674 -2.58339,2.69593 0.0787,0.90523 0.56515,1.59667 1.46014,2.07469 1.81363,-0.52776 3.52284,-1.54658 5.12728,-3.05471 1.6044293,-1.50918 2.8726693,-3.20004 3.8071693,-5.07365 0.93204,-1.87289 1.39947,-3.6643 1.39947,-5.37386 0,-1.71027 -0.5722,-3.05576 -1.71626,-4.03578 -1.14371,-0.98072 -2.60844,-1.47108 -4.3973793,-1.47108 -1.78823,0 -3.32634,0.69109 -4.61503,2.07469 -1.2887,1.38218 -1.93252,2.90971 -1.93252,4.58258 0,1.67146 0.5722,2.96615 1.71556,3.88444" />
    <path
       inkscape:connector-curvature="0"
       id="path5866"
       style="opacity:0.44999701;fill:#4a9dce;fill-opacity:1;fill-rule:nonzero;stroke:none;stroke-width:0.35277775"
       d="m 17.959997,287.74517 c 1.14406,0.91792 2.11102,1.37653 2.89984,1.37653 -0.0536,0.47696 -0.43992,1.2506 -1.16311,2.32022 -0.7232,1.06857 -1.57163,1.96674 -2.546,2.69593 0.0797,0.92992 0.56691,1.62243 1.46015,2.07469 2.70898,-0.80469 5.10892,-2.6028 7.19949,-5.39327 2.09056,-2.79153 3.13443,-5.26874 3.13443,-7.43056 0,-2.16253 -0.57679,-3.73415 -1.73461,-4.71417 -1.15817,-0.98072 -2.62961,-1.47108 -4.41784,-1.47108 -1.78858,0 -3.32563,0.69109 -4.61574,2.07469 -1.28658,1.38218 -1.93287,2.90971 -1.93287,4.58258 0,1.67146 0.57256,2.96615 1.71626,3.88444" />
  </g>
</svg>
